<?xml version="1.0" encoding="utf-8"?>
<!-- Generator: Adobe Illustrator 15.1.0, SVG Export Plug-In . SVG Version: 6.00 Build 0)  -->
<!DOCTYPE svg PUBLIC "-//W3C//DTD SVG 1.1//EN" "http://www.w3.org/Graphics/SVG/1.1/DTD/svg11.dtd">
<svg version="1.1"
	 id="svg1340" sodipodi:docbase="C:\Dokumente und Einstellungen\kueng.RUETHI\Eigene Dateien\SVN\TortoiseSVN\doc\logo" inkscape:version="0.45.1" sodipodi:version="0.32" sodipodi:docname="tsvn_logo_front.svg" inkscape:output_extension="org.inkscape.output.svg.inkscape" xmlns:rdf="http://www.w3.org/1999/02/22-rdf-syntax-ns#" xmlns:inkscape="http://www.inkscape.org/namespaces/inkscape" xmlns:sodipodi="http://sodipodi.sourceforge.net/DTD/sodipodi-0.dtd" xmlns:cc="http://web.resource.org/cc/" xmlns:svg="http://www.w3.org/2000/svg" xmlns:dc="http://purl.org/dc/elements/1.1/"
	 xmlns="http://www.w3.org/2000/svg" xmlns:xlink="http://www.w3.org/1999/xlink" x="0px" y="0px" width="468px" height="64px"
	 viewBox="-200.541 -49.375 468 64" enable-background="new -200.541 -49.375 468 64" xml:space="preserve">
<rect x="-200.541" y="-49.375" fill="#809CC8" width="84.021" height="64"/>
<sodipodi:namedview  height="92.125984px" width="131.10236px" id="base" borderopacity="1.0" inkscape:cy="92.123392" inkscape:cx="408.96523" bordercolor="#666666" pagecolor="#ffffff" inkscape:zoom="1" inkscape:window-width="1280" inkscape:window-x="0" inkscape:current-layer="svg1340" inkscape:pageopacity="0.0" inkscape:window-y="14" inkscape:pageshadow="2" inkscape:window-height="976">
	</sodipodi:namedview>
<path id="path5328" fill="#497FFF" stroke="#000000" d="M-174.749-7.283l2.254,0.662l2.917,0.664l0.839,0.044l-0.442,1.104
	l-0.486,1.459l-0.442,0.84l-1.149,0.795l-1.414,0.354l-1.193-0.354l-0.795-0.752l-0.663-1.9l-0.177-1.325l0.265-1.061
	L-174.749-7.283z"/>
<path id="path3580" sodipodi:nodetypes="cccccccc" fill="#FFFFFF" stroke="#000000" d="M-187.598-13.844L-187.598-13.844
	c-5.375-3.188-9.875-6.875-9.875-6.875c-3.25-3.563,2.25-1.375,2.25-1.375l9.438,3.313l-0.125,0.875l-2.75,1.188L-187.598-13.844z"
	/>
<path id="path3584" sodipodi:nodetypes="ccccccccccccc" fill="#FFFFFF" fill-opacity="0.5667" stroke="#000000" d="M-179.723-29.531
	c3.063-3.125,7.188-5,13.438-5.688c5.938,0.063,8.688-0.25,15.5,3.688c1.813,1.375,5.875,3,4.688,5.813
	c-1.875,3.688-1.938,3.438-2.875,6.813s-0.188,3.063-1.313,4.625c-2,2.125-0.563,2-3.125,3.125
	c-3.938-1.625-3.188-1.313-5.375-1.625c-3.75-0.313-3.75-0.438-8.438,1.813c-3.125,0.5-0.688,0.75-3.875,0.375
	c-7.625-3.75-5.625-4.938-9.5-5.875s-4.625-0.125-5-1.875C-185.473-21.844-182.348-26.781-179.723-29.531z"/>
<path id="path3590" sodipodi:nodetypes="ccccccccccccc" fill="#FFFFFF" stroke="#000000" d="M-186.473-13.344
	c5.297,0.189,6.639,3.826,9.188,5c3.074,0.762,5.028,2.375,8.563,2.5c3.898-1.875,9.679-1.688,15.063-0.188
	c2.854,0.063,4.196-1.97,6.75-7.5c1.365-4.211,1.595-8.071,3.688-10.125c1.218-0.992,2.096-2.313-0.375-3.313
	c-2.751-0.563-3.917,2.585-5.375,7.313c-0.866,4.17-2.55,9.244-5.5,7.5c-5.193-1.747-3.086-1.188-5.563-1.313
	c-4.637,0.313-8.396,3.891-14.438,0.625c-4.475-3.277-5.971-4.108-11.313-5.438C-186.969-18.596-192.103-18.009-186.473-13.344z"/>
<path id="path3593" sodipodi:nodetypes="ccccccccc" fill="#FFFFFF" stroke="#000000" d="M-187.004-13.406
	c-0.369,0.369-2.537,2.323-3.719,4.5c-1.201,2.213-1.463,4.51-0.063,7.563c1.099,2.885,4.241,3.217,7.938,4.313
	c1.572-0.264,2.72,0.717,4.125-0.875c1.145-1.27,1.986-0.889,0.938-3.25c-2.196-3.509-2.688-5.781-0.688-7.75
	c-0.563-1.44-1.227-2.164-4.25-3.938C-183.806-13.24-185.181-13.65-187.004-13.406"/>
<path id="path3599" sodipodi:nodetypes="ccccc" fill="#424242" fill-opacity="0.8074" stroke="#000000" d="M-174.723-7.219
	c-0.971,1.283-0.875,1.449-0.625,3.188c0.688,1.629,0.441,2.282,3.25,2.625c3.247-0.985,3.282-2.938,3.313-4.375
	C-172.389-5.906-174.101-7.52-174.723-7.219z"/>
<path id="path3601" sodipodi:nodetypes="cccccc" fill="#FFFFFF" stroke="#000000" d="M-169.598-0.281
	c0.225,2.339,3.31,3.582,8.125,4.375c3.634-0.247,6.751,1.433,9.125-2.125c0.429-2.651-0.181-6.563-2.188-8.188
	c-2.137-1.875-9.244-2.015-12.375-0.813C-169.624-5.546-170.015-2.388-169.598-0.281z"/>
<path id="path3604" sodipodi:nodetypes="cccc" fill="none" stroke="#000000" d="M-179.535-4.719c-4.354-0.625-7.48-0.911-9,5.688
	c5.003,2.233,8.318,2.48,9.563,1.563C-175.525,0.102-179.079-2.5-179.535-4.719z"/>
<path id="path3606" sodipodi:nodetypes="ccccc" fill="none" stroke="#000000" d="M-153.285-3.969
	c-3.938,0.211-7.545,1.59-9.813,7.313c0.628,0.744,0.848,0.736,1.938,0.813c2.557-0.127,5.253,0.404,7.125-0.438
	c3.194-2.099,1.235-7.48,0.688-7.563"/>
<path id="path3608" sodipodi:nodetypes="cc" fill="none" stroke="#000000" d="M-184.223-4.781c0.983,1.576,2.17,2.91,1.313,7.438"/>
<path id="path3610" sodipodi:nodetypes="cc" fill="none" stroke="#000000" d="M-181.723-4.969c1.117,2.08,2.188,4.099,1.563,7.813"
	/>
<path id="path3612" sodipodi:nodetypes="cc" fill="none" stroke="#000000" d="M-160.098-1.656c1.378,0.453,3.222,2.262,3.688,5.938"
	/>
<path id="path3614" sodipodi:nodetypes="cc" fill="none" stroke="#000000" d="M-157.285-3.406c1.583,1.52,3.337,2.661,3.438,6.813"
	/>
<path id="path3616" sodipodi:nodetypes="cccccc" fill="#FFFFFF" stroke="#000000" d="M-150.973-6.719
	c-0.387,3.142,0.974,7.86,4.625,7.875c5.565,0.573,6.946-1.42,8.25-3.375c1.022-3.738-2.875-7.688-5.625-10.188
	c-1.096-0.979-1.259-0.938-2.625-1c-2.085,0.75-2.548,6.109-4.688,6.688"/>
<path id="path3618" sodipodi:nodetypes="cccc" fill="#FFFFFF" stroke="#000000" d="M-146.848,0.906c4.226,1.352,5.138,0.112,8-1.938
	c1.905-1.906,0.685-6.129-2-8.375C-143.421-8.73-149.497-4.117-146.848,0.906z"/>
<path id="path3620" sodipodi:nodetypes="cc" fill="none" stroke="#000000" d="M-146.098-5.531c-0.021-0.021,3.093,1.557,3.938,6.188
	"/>
<path id="path3622" sodipodi:nodetypes="cc" fill="none" stroke="#000000" d="M-143.723-7.406c1.093,0.982,3.503,2.541,4.375,6.563"
	/>
<path id="path3624" sodipodi:nodetypes="ccccccccccc" fill="#FFFFFF" stroke="#000000" d="M-135.785-28.844
	c0.927-5.541,0.935-5.607,2.688-7.313c4.095-2.618-0.835,12.554,7.625,7.188c0.415,0.699,2.976,0.388,3.813,1.375
	c2.112,1.882,2.438,2.721,1.875,3.563c-2.125,3.585-2.967,1.967-5.813,2.938c-0.595,1.72-2.022,2.115-6.875,2.188
	c-3.147,0.271-3.613,2.325-5,3.625c-1.526,1.194-3.143,3.587-9.313,1.563c1.45-4.123,0.669-8.002,4.063-10.375
	C-137.589-23.334-137.048-26.32-135.785-28.844z"/>
<path id="path3626" sodipodi:nodetypes="cc" fill="none" stroke="#000000" d="M-131.348-24.906c1.182,2.098,2.757,3.438,6.25,3.563"
	/>
<path id="path3628" sodipodi:cx="74.4375" sodipodi:type="arc" sodipodi:ry="5.375" sodipodi:rx="3.375" sodipodi:cy="17.424681" fill="#B5C8DD" stroke="#231F20" d="
	M-120.848-33.656c0,2.969-1.511,5.375-3.375,5.375s-3.375-2.406-3.375-5.375s1.511-5.375,3.375-5.375
	S-120.848-36.625-120.848-33.656z"/>
<path id="path5148" sodipodi:cx="74.4375" sodipodi:type="arc" sodipodi:ry="5.375" sodipodi:rx="3.375" sodipodi:cy="17.424681" fill="#B5C8DD" stroke="#231F20" d="
	M-124.785-32.969c0,2.969-1.511,5.375-3.375,5.375s-3.375-2.406-3.375-5.375s1.511-5.375,3.375-5.375
	S-124.785-35.938-124.785-32.969z"/>
<path id="path5150" sodipodi:cx="60.5" sodipodi:type="arc" sodipodi:ry="1.09375" sodipodi:rx="0.8125" sodipodi:cy="14.330931" d="
	M-125.535-32.25c0,1.226-0.644,2.219-1.438,2.219s-1.438-0.993-1.438-2.219l0,0c0-1.226,0.644-2.219,1.438-2.219
	S-125.535-33.476-125.535-32.25L-125.535-32.25z"/>
<path id="path5912" sodipodi:cx="60.5" sodipodi:type="arc" sodipodi:ry="1.09375" sodipodi:rx="0.8125" sodipodi:cy="14.330931" d="
	M-121.535-33.188c0,1.174-0.587,2.125-1.313,2.125s-1.313-0.951-1.313-2.125l0,0c0-1.174,0.587-2.125,1.313-2.125
	S-121.535-34.361-121.535-33.188L-121.535-33.188z"/>
<path id="path3809" fill="#FFFFFF" stroke="#000000" d="M-185.576-19.127c1.37-4.331,4.11-8.397,4.11-8.397l3.093-3.358l3.359-2.033
	l4.552-1.635l4.508-0.751l4.199,0.089l5.083,0.839l4.109,1.812l3.801,2.387l1.945,1.547l0.618,0.884l0.177,0.972l-0.397,0.972
	l-1.326,2.475l-1.503,4.994l-1.193,3.889l-1.369,1.9l-0.885,0.531l-1.104,0.221l-1.415-0.53l-2.696-0.973l-1.37-0.132l-2.828,0.309
	l-3.934,1.149l-3.005,0.574l-1.989-0.044l-2.298-0.795l-1.326-0.708l-1.768-1.414l-2.254-1.414l-3.05-1.414l-3.182-1.061
	l-0.795-0.486L-185.576-19.127z"/>
<line fill="#809CC8" stroke="#809CC8" stroke-width="4" x1="-106.521" y1="-40.031" x2="261.479" y2="-40.031"/>
<line fill="#809CC8" stroke="#809CC8" stroke-width="4" x1="-106.521" y1="6.625" x2="261.479" y2="6.625"/>
<g>
	<path fill="#999999" d="M-81.674-24.9h-2.442c-1.615,0-2.806-0.253-3.574-0.761c-0.767-0.507-1.151-1.274-1.151-2.302
		c0-1.041,0.39-1.822,1.171-2.342c0.78-0.521,1.965-0.781,3.553-0.781h11.551c1.562,0,2.739,0.257,3.533,0.771
		c0.794,0.514,1.191,1.298,1.191,2.353c0,1.028-0.391,1.795-1.171,2.302c-0.781,0.507-1.966,0.761-3.554,0.761h-2.462v18.618
		c0,1.602-0.274,2.786-0.821,3.553c-0.547,0.768-1.381,1.151-2.502,1.151c-1.108,0-1.939-0.387-2.493-1.161
		c-0.554-0.774-0.831-1.955-0.831-3.543V-24.9z"/>
	<path fill="#999999" d="M-57.922-12.838c0-3.38,1.031-6.151,3.093-8.315c2.063-2.164,4.681-3.246,7.858-3.246
		c3.163,0,5.772,1.082,7.828,3.246c2.055,2.164,3.083,4.936,3.083,8.315c0,3.353-1.021,6.121-3.063,8.305s-4.658,3.276-7.848,3.276
		c-3.163,0-5.779-1.088-7.848-3.266C-56.888-6.7-57.922-9.472-57.922-12.838z M-51.235-12.918c0,1.645,0.394,2.975,1.181,3.991
		c0.787,1.017,1.815,1.524,3.083,1.524c1.254,0,2.279-0.508,3.073-1.524c0.794-1.016,1.191-2.346,1.191-3.991
		c0-1.578-0.407-2.875-1.221-3.891c-0.814-1.016-1.829-1.524-3.043-1.524c-1.228,0-2.246,0.505-3.053,1.514
		C-50.832-15.81-51.235-14.509-51.235-12.918z"/>
	<path fill="#999999" d="M-23.058-6.362v-12.993c0-1.562,0.263-2.732,0.791-3.514c0.527-0.78,1.338-1.171,2.433-1.171
		c0.654,0,1.234,0.174,1.742,0.521c0.507,0.32,0.954,0.834,1.341,1.542c0.667-0.721,1.375-1.261,2.122-1.622
		c0.4-0.187,0.774-0.327,1.121-0.42c0.347-0.093,0.727-0.14,1.141-0.14c0.867,0,1.631,0.317,2.292,0.951
		c0.66,0.634,0.991,1.385,0.991,2.252c0,1.281-1.188,2.362-3.563,3.243c-0.294,0.107-0.604,0.217-0.931,0.33
		c-0.327,0.114-0.657,0.257-0.991,0.431c-0.814,0.387-1.355,0.818-1.622,1.291c-0.267,0.474-0.4,1.332-0.4,2.573v6.727
		c0,1.588-0.267,2.77-0.801,3.543c-0.534,0.774-1.348,1.161-2.442,1.161c-1.068,0-1.872-0.383-2.412-1.151
		C-22.788-3.576-23.058-4.76-23.058-6.362z"/>
	<path fill="#999999" d="M3.617-17.813h-0.24c-1.121,0-2.009-0.25-2.663-0.75c-0.654-0.501-0.981-1.178-0.981-2.032
		c0-0.881,0.32-1.562,0.961-2.042c0.32-0.24,0.734-0.437,1.241-0.591c0.507-0.153,1.067-0.23,1.682-0.23v-2.843
		c0-1.588,0.267-2.769,0.801-3.543c0.534-0.774,1.348-1.161,2.442-1.161c1.081,0,1.885,0.387,2.412,1.161
		c0.527,0.774,0.791,1.956,0.791,3.543v2.843h0.561c1.281,0,2.279,0.254,2.993,0.761c0.713,0.507,1.071,1.208,1.071,2.102
		c0,0.908-0.347,1.599-1.041,2.072c-0.694,0.474-1.715,0.71-3.063,0.71h-0.521v11.451c0,1.588-0.26,2.77-0.781,3.543
		C8.762-2.044,7.955-1.657,6.86-1.657c-1.068,0-1.875-0.387-2.422-1.161C3.891-3.592,3.617-4.773,3.617-6.362V-17.813z"/>
	<path fill="#999999" d="M24.487-12.838c0-3.38,1.031-6.151,3.093-8.315c2.062-2.164,4.681-3.246,7.857-3.246
		c3.163,0,5.772,1.082,7.827,3.246c2.056,2.164,3.084,4.936,3.084,8.315c0,3.353-1.021,6.121-3.063,8.305s-4.658,3.276-7.848,3.276
		c-3.163,0-5.779-1.088-7.848-3.266C25.521-6.7,24.487-9.472,24.487-12.838z M31.173-12.918c0,1.645,0.394,2.975,1.181,3.991
		c0.787,1.017,1.815,1.524,3.083,1.524c1.254,0,2.279-0.508,3.073-1.524c0.793-1.016,1.191-2.346,1.191-3.991
		c0-1.578-0.407-2.875-1.221-3.891c-0.814-1.016-1.829-1.524-3.043-1.524c-1.228,0-2.246,0.505-3.053,1.514
		C31.577-15.81,31.173-14.509,31.173-12.918z"/>
	<path fill="#999999" d="M59.05-29.484c0-1.027,0.367-1.908,1.102-2.643c0.733-0.734,1.614-1.101,2.643-1.101
		c1,0,1.864,0.364,2.592,1.091s1.092,1.611,1.092,2.652s-0.357,1.922-1.071,2.643c-0.715,0.721-1.585,1.081-2.612,1.081
		c-1.028,0-1.909-0.36-2.643-1.081C59.417-27.563,59.05-28.443,59.05-29.484z M65.977-6.362c0,1.588-0.261,2.77-0.78,3.543
		c-0.521,0.774-1.322,1.161-2.402,1.161c-1.068,0-1.876-0.387-2.423-1.161c-0.548-0.774-0.821-1.955-0.821-3.543v-12.993
		c0-1.562,0.264-2.732,0.791-3.514c0.527-0.78,1.345-1.171,2.453-1.171c1.08,0,1.881,0.384,2.402,1.151
		c0.52,0.768,0.78,1.945,0.78,3.533V-6.362z"/>
	<path fill="#999999" d="M86.606-1.317c-2.282,0-4.188-0.46-5.716-1.381s-2.292-2.062-2.292-3.423c0-0.787,0.24-1.468,0.721-2.042
		c0.48-0.574,1.061-0.861,1.742-0.861c0.707,0,1.718,0.314,3.032,0.941c1.314,0.627,2.299,0.941,2.953,0.941
		c0.521,0,0.951-0.126,1.291-0.38c0.341-0.253,0.511-0.567,0.511-0.941c0-0.627-1.034-1.361-3.104-2.202l-0.4-0.16
		c-2.375-0.987-3.997-1.965-4.864-2.933c-0.868-0.968-1.302-2.192-1.302-3.674c0-1.962,0.762-3.617,2.283-4.965
		c0.773-0.667,1.638-1.167,2.592-1.501c0.954-0.333,2.025-0.5,3.213-0.5c2.109,0,3.897,0.444,5.365,1.331
		c1.469,0.888,2.203,1.946,2.203,3.173c0,0.761-0.258,1.401-0.771,1.922s-1.145,0.781-1.892,0.781c-0.48,0-1.312-0.26-2.492-0.781
		c-1.182-0.521-2.086-0.781-2.713-0.781c-0.44,0-0.794,0.104-1.062,0.311c-0.267,0.207-0.4,0.477-0.4,0.811
		c0,0.601,0.854,1.228,2.563,1.882c0.734,0.267,1.368,0.527,1.902,0.781c1.895,0.854,3.264,1.772,4.104,2.752
		c0.842,0.981,1.262,2.152,1.262,3.514c0,2.109-0.824,3.867-2.473,5.275S89.129-1.317,86.606-1.317z"/>
	<path fill="#999999" d="M113.423-11.046c0.133,1.188,0.627,2.129,1.48,2.823c0.854,0.694,1.989,1.041,3.404,1.041
		c1.214,0,2.565-0.351,4.054-1.051c1.487-0.701,2.405-1.051,2.753-1.051c0.773,0,1.397,0.234,1.871,0.701
		c0.474,0.467,0.711,1.068,0.711,1.802c0,1.375-0.968,2.623-2.902,3.744c-1.936,1.121-4.212,1.682-6.827,1.682
		c-3.19,0-5.853-1.087-7.987-3.263c-2.136-2.175-3.203-4.905-3.203-8.188c0-3.296,1.037-6.046,3.112-8.248s4.661-3.303,7.758-3.303
		c2.989,0,5.492,1.038,7.507,3.113c2.016,2.075,3.023,4.601,3.023,7.577c0,0.961-0.224,1.639-0.671,2.032s-1.291,0.59-2.532,0.59
		H113.423z M113.343-15.271h8.527c0-0.507-0.116-0.991-0.35-1.451c-0.234-0.461-0.558-0.891-0.971-1.292
		c-0.814-0.734-1.77-1.101-2.863-1.101c-1.095,0-2.032,0.344-2.813,1.031C114.093-17.396,113.583-16.458,113.343-15.271z"/>
	<path fill="#809CC8" d="M160.356-10.966c0,2.91-1.037,5.272-3.112,7.087c-2.076,1.815-4.809,2.723-8.198,2.723
		c-2.616,0-4.842-0.464-6.677-1.391c-1.835-0.928-2.753-2.025-2.753-3.293c0-0.894,0.301-1.615,0.901-2.162
		c0.601-0.547,1.395-0.821,2.382-0.821c0.494,0,1.535,0.247,3.123,0.741c1.589,0.494,2.91,0.741,3.965,0.741
		c0.934,0,1.714-0.283,2.342-0.851c0.627-0.567,0.941-1.285,0.941-2.152c0-0.921-0.324-1.662-0.972-2.222s-2.019-1.161-4.114-1.802
		c-3.043-0.894-5.175-1.968-6.396-3.223c-1.222-1.254-1.832-2.936-1.832-5.045c0-2.696,0.978-4.908,2.933-6.637
		c1.955-1.728,4.501-2.592,7.638-2.592c2.322,0,4.228,0.411,5.716,1.231c1.487,0.821,2.232,1.846,2.232,3.073
		c0,0.868-0.268,1.555-0.801,2.062c-0.534,0.507-1.262,0.761-2.183,0.761c-0.534,0-1.389-0.17-2.563-0.51
		c-1.175-0.341-2.056-0.511-2.643-0.511c-0.988,0-1.775,0.227-2.362,0.681c-0.588,0.454-0.881,1.061-0.881,1.822
		c0,1.188,1.294,2.189,3.884,3.003l1.401,0.44c2.763,0.921,4.791,2.092,6.086,3.513C159.709-14.88,160.356-13.102,160.356-10.966z"
		/>
	<path fill="#809CC8" d="M179.706-3.859l-8.889-22.302c-0.066-0.16-0.123-0.323-0.17-0.49s-0.087-0.331-0.12-0.491
		s-0.057-0.293-0.07-0.4c-0.013-0.106-0.021-0.28-0.021-0.521c0-0.934,0.328-1.718,0.981-2.352s1.475-0.951,2.462-0.951
		c0.708,0,1.292,0.214,1.752,0.641c0.461,0.427,0.891,1.168,1.291,2.222l6.146,16.556l5.705-16.316
		c0.374-1.147,0.812-1.952,1.312-2.413c0.501-0.46,1.158-0.69,1.972-0.69c1.015,0,1.806,0.274,2.373,0.821
		c0.566,0.547,0.851,1.295,0.851,2.242c0,0.347-0.037,0.728-0.11,1.141c-0.073,0.414-0.184,0.801-0.33,1.161L186.232-4.12
		c-0.388,0.988-0.845,1.695-1.371,2.122c-0.527,0.427-1.191,0.641-1.992,0.641c-0.774,0-1.398-0.19-1.872-0.571
		C180.523-2.308,180.093-2.952,179.706-3.859z"/>
	<path fill="#809CC8" d="M213.628-6.282c0,1.602-0.273,2.786-0.82,3.553c-0.548,0.768-1.381,1.151-2.502,1.151
		c-1.108,0-1.939-0.388-2.493-1.163c-0.554-0.775-0.831-1.958-0.831-3.548v-20.728c0-1.483,0.256-2.596,0.766-3.337
		s1.289-1.113,2.337-1.113c0.671,0,1.271,0.161,1.802,0.482c0.531,0.321,1.111,0.876,1.742,1.665l12.213,16.231v-13.653
		c0-1.602,0.272-2.789,0.82-3.563c0.547-0.774,1.381-1.161,2.502-1.161s1.955,0.39,2.503,1.171c0.547,0.78,0.821,1.965,0.821,3.553
		v21.201c0,1.401-0.244,2.442-0.731,3.123s-1.258,1.021-2.312,1.021c-0.694,0-1.346-0.194-1.952-0.581
		c-0.607-0.387-1.225-1.001-1.853-1.842l-12.012-15.875V-6.282z"/>
</g>
</svg>
