<svg xmlns="http://www.w3.org/2000/svg" width="338" height="106" fill="none" viewBox="0 0 338 106">
  <defs>
    <linearGradient id="a" x1="61.22" x2="22.01" y1="61.67" y2="22.46" gradientUnits="userSpaceOnUse">
      <stop offset=".23" stop-color="#21D789"/>
      <stop offset=".89" stop-color="#AF1DF5"/>
    </linearGradient>
  </defs>
  <path fill="#000" d="M118 48.93h6.64l14 33.37h-7.54l-3-7.43h-13.82l-3 7.43H104l14-33.37zm7.57 19.5l-4.35-10.74-4.34 10.74h8.69zM139.37 69.76v-.09a12.947 12.947 0 018.056-12.256 12.94 12.94 0 015.074-.954c4.72 0 7.66 1.61 10 4.26l-4.34 4.73a7.306 7.306 0 00-5.71-2.79c-3.55 0-6.07 3.17-6.07 6.91v.1c0 3.88 2.48 7 6.35 7 2.39 0 4-1 5.75-2.7l4.16 4.26a12.546 12.546 0 01-10.23 4.64 12.871 12.871 0 01-13.04-13.11zM164.6 75.02v-.1c0-5.54 4.16-8.1 10.1-8.1a17.499 17.499 0 016.12 1v-.43c0-3-1.82-4.64-5.38-4.64-2.37.003-4.718.468-6.91 1.37l-1.78-5.49a21.892 21.892 0 019.72-2c3.88 0 6.68 1 8.46 2.84 1.78 1.84 2.71 4.68 2.71 8.09V82.3h-6.87v-2.74a9.573 9.573 0 01-7.57 3.22c-4.72 0-8.6-2.76-8.6-7.76zm16.31-1.65v-1.29a10.83 10.83 0 00-4.53-1c-3 0-4.91 1.23-4.91 3.51v.09c0 1.94 1.59 3.08 3.88 3.08 3.32.05 5.56-1.8 5.56-4.4v.01zM191.47 69.67v-.1c0-8.47 5.47-13.11 11.4-13.11a9.597 9.597 0 017.81 3.78V47.75h7.1V82.3h-7.1v-3.64a9.184 9.184 0 01-7.81 4.12c-5.87 0-11.4-4.64-11.4-13.11zm19.3 0v-.1c0-4.21-2.76-7-6.08-7-3.32 0-6.12 2.75-6.12 7v.1c0 4.21 2.81 7 6.12 7s6.08-2.79 6.08-7zM221.75 69.76v-.09c0-7.25 5.09-13.21 12.38-13.21 8.37 0 12.2 6.58 12.2 13.77 0 .57-.05 1.23-.1 1.9h-17.42a5.831 5.831 0 006.12 5 8.137 8.137 0 006.07-2.64l4.07 3.65a12.482 12.482 0 01-10.24 4.73c-7.52 0-13.08-5.35-13.08-13.11zm17.66-2.13c-.42-3.22-2.29-5.4-5.28-5.4s-4.86 2.13-5.42 5.4h10.7zM250.44 56.93h7.1v3.6c1.64-2.13 3.79-4.07 7.38-4.07a7.483 7.483 0 017.06 4 10.268 10.268 0 018.22-4c5.29 0 8.46 3.22 8.46 9.32V82.3h-7.1V68.15c0-3.41-1.5-5.16-4.16-5.16s-4.3 1.75-4.3 5.16V82.3H266V68.15c0-3.41-1.5-5.16-4.16-5.16s-4.3 1.75-4.3 5.16V82.3h-7.1V56.93zM309.41 56.93h7.38l-9.62 26c-1.92 5.16-4 7.1-8.23 7.1a11.66 11.66 0 01-6.31-1.75l2.37-5.26c.9.58 1.932.925 3 1a2.369 2.369 0 002.48-1.66l-9.81-25.47h7.52l5.7 17.28 5.52-17.24zM82.24 22.69v60h-60l60-60z"/>
  <path fill="#fff" d="M74.76 75.19H59.74v-3.31h15.02v3.31z"/>
  <path fill="url(#a)" d="M22.24 82.69v-60h60l-60 60z"/>
  <path fill="#000" d="M102.67 38.28l1.54-1.32c1.16 1.75 2.35 2.7 4.32 2.7 2.13 0 3.7-1.54 3.7-4.54V22.46h2.16v12.63a6.826 6.826 0 01-1.73 5 5.771 5.771 0 01-4.16 1.57 6.49 6.49 0 01-5.83-3.38zM118.28 34.42c0-4 2.84-7.27 6.7-7.27 4.13 0 6.5 3.3 6.5 7.37.016.226.016.454 0 .68h-11.09a4.868 4.868 0 004.91 4.72 5.76 5.76 0 004.4-2l1.3 1.1a7.209 7.209 0 01-5.75 2.62 6.936 6.936 0 01-5.029-2.12 6.951 6.951 0 01-1.941-5.1zm11.1-.81c-.22-2.54-1.68-4.75-4.46-4.75-2.43 0-4.26 2-4.53 4.75h8.99zM135.38 37.66v-8.42h-1.94V27.4h1.94v-4.21h2.08v4.21h4.43v1.84h-4.43v8.15a2.066 2.066 0 00.598 1.745 2.07 2.07 0 001.752.575 4.23 4.23 0 002-.49v1.8a5.29 5.29 0 01-2.51.59c-2.22-.01-3.92-1.12-3.92-3.95zM145.34 22.46h8a6.91 6.91 0 014.94 1.68 4.2 4.2 0 011.21 3v.05a4.57 4.57 0 01-3 4.38c2.24.67 4 2 4 4.56 0 3.24-2.73 5.16-6.86 5.16h-8.4l.11-18.83zm12 5c0-1.87-1.48-3.08-4.18-3.08h-5.75v6.5H153c2.56 0 4.34-1.16 4.34-3.37v-.05zm-4 5.31h-6v6.67h6.34c2.86 0 4.65-1.27 4.65-3.37v-.05c.11-2.06-1.62-3.25-4.91-3.25h-.08zM164.58 27.4h2.08v3.62a6 6 0 015.7-3.89v2.24h-.17c-3.05 0-5.53 2.19-5.53 6.4v5.56h-2.08V27.4zM174.06 37.31v-.06c0-2.94 2.43-4.5 6-4.5a14.846 14.846 0 014.29.59v-.49c0-2.51-1.54-3.8-4.15-3.8a9.749 9.749 0 00-4.24 1l-.62-1.7a11.551 11.551 0 015.07-1.16 6.16 6.16 0 014.51 1.54 5.56 5.56 0 011.43 4.08v8.53h-2v-2.09a6.096 6.096 0 01-5 2.4c-2.68 0-5.29-1.48-5.29-4.34zm10.28-1.08v-1.35a14.42 14.42 0 00-4.1-.6c-2.62 0-4.08 1.14-4.08 2.89v.06c0 1.75 1.62 2.78 3.51 2.78 2.56.01 4.67-1.57 4.67-3.78zM190.55 22.02h2.37v2.29h-2.37v-2.29zm.13 5.34h2.08v14h-2.08v-14zM197.29 27.4h2.08v2.43a5.298 5.298 0 014.78-2.73c3.37 0 5.34 2.27 5.34 5.59v8.67h-2.08v-8.15c0-2.6-1.4-4.22-3.86-4.22a4.113 4.113 0 00-3.943 2.707 4.104 4.104 0 00-.237 1.673v8h-2.08V27.4zM212.54 39.58l1.06-1.49a8.16 8.16 0 004.83 1.78c1.67 0 2.89-.86 2.89-2.21v-.06c0-1.4-1.65-1.94-3.49-2.45-2.18-.62-4.61-1.38-4.61-3.94v-.06c0-2.4 2-4 4.75-4a9.489 9.489 0 015 1.54l-1 1.56a7.93 7.93 0 00-4.12-1.35c-1.65 0-2.7.87-2.7 2 0 1.32 1.72 1.84 3.59 2.4 2.16.65 4.48 1.49 4.48 4v.05c0 2.65-2.19 4.19-5 4.19a9.67 9.67 0 01-5.68-1.96z"/>
</svg>
